USFL
nRows=288
nColumns=2
inDegrees=yes
endheader
time	med_gas_r	
6.3871	 35.603580	
6.42036	 35.232258	
6.45363	 35.214073	
6.4869	 35.257525	
6.52016	 35.257484	
6.55343	 35.276329	
6.58669	 35.299125	
6.61996	 35.269414	
6.65323	 35.229063	
6.68649	 35.179941	
6.71976	 35.150153	
6.75302	 35.060578	
6.78629	 35.056908	
6.81956	 35.068165	
6.85282	 35.009709	
6.88609	 35.065495	
6.91935	 35.066111	
6.95262	 35.096954	
6.98589	 35.086826	
7.01915	 35.056624	
7.05242	 35.057629	
7.08569	 35.042741	
7.11895	 35.079957	
7.15222	 35.032701	
7.18548	 35.049884	
7.21875	 35.044636	
7.25202	 35.004982	
7.28528	 35.047306	
7.31855	 35.135977	
7.35181	 35.092341	
7.38508	 35.090715	
7.41835	 35.116436	
7.45161	 35.073951	
7.48488	 34.850483	
7.51815	 34.884971	
7.55141	 34.900521	
7.58468	 34.780428	
7.61794	 34.912732	
7.65121	 35.056719	
7.68448	 35.068229	
7.71774	 35.055053	
7.75101	 35.009254	
7.78427	 35.013582	
7.81754	 35.037866	
7.85081	 35.076715	
7.88407	 35.106533	
7.91734	 35.131355	
7.9506	 35.120797	
7.98387	 35.097993	
8.01714	 35.070465	
8.0504	 35.071996	
8.08367	 35.043887	
8.11694	 35.034523	
8.1502	 35.052369	
8.18347	 35.005364	
8.21673	 34.967496	
8.25	 34.994919	
8.28327	 35.041110	
8.31653	 35.062618	
8.3498	 35.044673	
8.38306	 34.993862	
8.41633	 35.005072	
8.4496	 34.972549	
8.48286	 34.925133	
8.51613	 34.942486	
8.5494	 34.943137	
8.58266	 34.940820	
8.61593	 34.946545	
8.64919	 34.935297	
8.68246	 34.988389	
8.71573	 34.915925	
8.74899	 34.810584	
8.78226	 34.736997	
8.81552	 34.703724	
8.84879	 34.644105	
8.88206	 34.598415	
8.91532	 34.692906	
8.94859	 34.651516	
8.98185	 34.682023	
9.01512	 34.705781	
9.04839	 34.658592	
9.08165	 34.695338	
9.11492	 34.577014	
9.14819	 34.574080	
9.18145	 34.446283	
9.21472	 34.335569	
9.24798	 34.332360	
9.28125	 34.262678	
9.31452	 34.262030	
9.34778	 34.249819	
9.38105	 34.261005	
9.41431	 34.271315	
9.44758	 34.276876	
9.48085	 34.217253	
9.51411	 34.254565	
9.54738	 34.247122	
9.58065	 34.247178	
9.61391	 34.226867	
9.64718	 34.236881	
9.68044	 34.202096	
9.71371	 34.182501	
9.74698	 34.171693	
9.78024	 34.170308	
9.81351	 34.194025	
9.84677	 34.186087	
9.88004	 34.204621	
9.91331	 34.201942	
9.94657	 34.210474	
9.97984	 34.248955	
10.0131	 34.337970	
10.0464	 34.372306	
10.0796	 34.388876	
10.1129	 34.367956	
10.1462	 34.410539	
10.1794	 34.363629	
10.2127	 34.291247	
10.246	 34.194121	
10.2792	 34.282344	
10.3125	 34.333851	
10.3458	 34.325515	
10.379	 34.300891	
10.4123	 34.278445	
10.4456	 34.280664	
10.4788	 34.281411	
10.5121	 34.281482	
10.5454	 34.249885	
10.5786	 34.230895	
10.6119	 34.203869	
10.6452	 34.175972	
10.6784	 34.241146	
10.7117	 34.157235	
10.745	 34.087478	
10.7782	 34.116144	
10.8115	 34.042045	
10.8448	 33.975464	
10.878	 33.924221	
10.9113	 33.930654	
10.9446	 33.946993	
10.9778	 33.967539	
11.0111	 33.928682	
11.0444	 33.956865	
11.0776	 33.958060	
11.1109	 33.969606	
11.1442	 33.978593	
11.1774	 33.912646	
11.2107	 33.842216	
11.244	 33.837574	
11.2772	 33.807026	
11.3105	 33.808749	
11.3437	 33.784576	
11.377	 33.775874	
11.4103	 33.807875	
11.4435	 33.772704	
11.4768	 33.745460	
11.5101	 33.722040	
11.5433	 33.680929	
11.5766	 33.652654	
11.6099	 33.628130	
11.6431	 33.661164	
11.6764	 33.670443	
11.7097	 33.673842	
11.7429	 33.684686	
11.7762	 33.617158	
11.8095	 33.655953	
11.8427	 33.666045	
11.876	 33.669337	
11.9093	 33.660569	
11.9425	 33.647341	
11.9758	 33.640039	
12.0091	 33.645699	
12.0423	 33.683634	
12.0756	 33.704141	
12.1089	 33.684922	
12.1421	 33.666875	
12.1754	 33.653052	
12.2087	 33.656083	
12.2419	 33.693529	
12.2752	 33.665141	
12.3085	 33.652968	
12.3417	 33.656202	
12.375	 33.638908	
12.4083	 33.601437	
12.4415	 33.599821	
12.4748	 33.580580	
12.5081	 33.613197	
12.5413	 33.591137	
12.5746	 33.554825	
12.6079	 33.544799	
12.6411	 33.527451	
12.6744	 33.528403	
12.7077	 33.536898	
12.7409	 33.518452	
12.7742	 33.494626	
12.8075	 33.490798	
12.8407	 33.491844	
12.874	 33.531116	
12.9073	 33.483792	
12.9405	 33.457220	
12.9738	 33.454280	
13.0071	 33.445353	
13.0403	 33.437604	
13.0736	 33.411012	
13.1069	 33.420295	
13.1401	 33.426772	
13.1734	 33.415466	
13.2067	 33.432225	
13.2399	 33.457239	
13.2732	 33.445572	
13.3065	 33.453318	
13.3397	 33.444403	
13.373	 33.458813	
13.4062	 33.465551	
13.4395	 33.480872	
13.4728	 33.507379	
13.506	 33.490059	
13.5393	 33.490943	
13.5726	 33.480816	
13.6058	 33.474427	
13.6391	 33.476754	
13.6724	 33.462637	
13.7056	 33.450762	
13.7389	 33.427617	
13.7722	 33.401986	
13.8054	 33.435721	
13.8387	 33.377631	
13.872	 33.325080	
13.9052	 33.327131	
13.9385	 33.324082	
13.9718	 33.355303	
14.005	 33.335683	
14.0383	 33.300428	
14.0716	 33.356033	
14.1048	 33.301963	
14.1381	 33.231246	
14.1714	 33.141149	
14.2046	 33.250266	
14.2379	 33.250035	
14.2712	 33.238930	
14.3044	 33.317734	
14.3377	 33.325973	
14.371	 33.308974	
14.4042	 33.308036	
14.4375	 33.304146	
14.4708	 33.306231	
14.504	 33.291733	
14.5373	 33.313023	
14.5706	 33.340324	
14.6038	 33.362223	
14.6371	 33.382693	
14.6704	 33.398126	
14.7036	 33.384012	
14.7369	 33.373371	
14.7702	 33.376492	
14.8034	 33.380975	
14.8367	 33.376853	
14.87	 33.389049	
14.9032	 33.310392	
14.9365	 33.378902	
14.9698	 33.399721	
15.003	 33.426474	
15.0363	 33.507524	
15.0696	 33.556483	
15.1028	 33.521243	
15.1361	 33.473511	
15.1694	 33.534161	
15.2026	 33.465110	
15.2359	 33.468381	
15.2692	 33.527500	
15.3024	 33.477937	
15.3357	 33.466885	
15.369	 33.465017	
15.4022	 33.458673	
15.4355	 33.476704	
15.4687	 33.483339	
15.502	 33.484937	
15.5353	 33.517960	
15.5685	 33.497134	
15.6018	 33.471503	
15.6351	 33.434495	
15.6683	 33.446546	
15.7016	 33.465647	
15.7349	 33.499443	
15.7681	 33.526692	
15.8014	 33.562117	
15.8347	 33.532703	
15.8679	 33.500983	
15.9012	 33.509685	
15.9345	 33.508099	
